<svg width="18" height="14" viewBox="0 0 18 14" fill="none" xmlns="http://www.w3.org/2000/svg">
<path d="M3.00244 2.49829C3.00244 1.87695 3.50612 1.37329 4.12744 1.37329H13.8774C14.4988 1.37329 15.0024 1.87695 15.0024 2.49829V6.62329H3.00244V2.49829Z" stroke="#707580" stroke-width="1.39837" stroke-linecap="round" stroke-linejoin="round"/>
<path d="M2.25 11.1221V12.6221" stroke="#707580" stroke-width="1.39837" stroke-linecap="round" stroke-linejoin="round"/>
<path d="M15.75 11.1221V12.6221" stroke="#707580" stroke-width="1.39837" stroke-linecap="round" stroke-linejoin="round"/>
<path d="M10.8762 4.74658H7.12622C6.50488 4.74658 6.00122 5.25024 6.00122 5.87158V6.62158H12.0012V5.87158C12.0012 5.25024 11.4976 4.74658 10.8762 4.74658Z" fill="#707580" stroke="#707580" stroke-width="1.39837" stroke-linecap="round" stroke-linejoin="round"/>
<path d="M1.50122 7.74707C1.50122 7.12573 2.0049 6.62207 2.62622 6.62207H15.3762C15.9976 6.62207 16.5012 7.12573 16.5012 7.74707V11.1221H1.50122V7.74707Z" stroke="#707580" stroke-width="1.39837" stroke-linecap="round" stroke-linejoin="round"/>
</svg>
