<svg width="197" height="50" viewBox="0 0 197 50" fill="none" xmlns="http://www.w3.org/2000/svg">
<g clip-path="url(#clip0_6095_145634)">
<path d="M57.2388 26.0865C57.2384 27.7897 56.5671 29.4237 55.3711 30.633C54.1751 31.8422 52.5512 32.5288 50.853 32.5432C49.39 32.5536 47.9764 32.0129 46.892 31.0281V32.3072H44.1309V12.9688H46.892V21.1492C47.9854 20.1821 49.3951 19.6519 50.853 19.6594C52.548 19.6677 54.171 20.3483 55.3674 21.5525C56.5639 22.7566 57.2366 24.3866 57.2388 26.0865ZM54.4231 26.0865C54.4102 25.342 54.1781 24.6178 53.756 24.0052C53.3339 23.3925 52.7405 22.9187 52.0505 22.6433C51.3606 22.368 50.6049 22.3033 49.8784 22.4575C49.1519 22.6117 48.4871 22.9779 47.9676 23.51C47.448 24.0421 47.097 24.7163 46.9586 25.4479C46.8201 26.1796 46.9005 26.9359 47.1896 27.6219C47.4786 28.3078 47.9635 28.8928 48.5832 29.3031C49.2028 29.7135 49.9297 29.9309 50.6722 29.9281C51.6773 29.9164 52.6367 29.5054 53.3398 28.7852C54.043 28.065 54.4326 27.0945 54.4231 26.0865Z" fill="white"/>
<path d="M71.0716 19.8902V32.3042H68.3105V31.0251C67.226 32.0099 65.8125 32.5506 64.3495 32.5402C62.6458 32.5402 61.0119 31.8615 59.8072 30.6534C58.6026 29.4453 57.9258 27.8068 57.9258 26.0983C57.9258 24.3898 58.6026 22.7512 59.8072 21.5431C61.0119 20.335 62.6458 19.6563 64.3495 19.6563C65.8074 19.6489 67.2171 20.1791 68.3105 21.1462V19.8818L71.0716 19.8902ZM68.3105 26.0835C68.2976 25.3403 68.0664 24.6174 67.6456 24.0054C67.2249 23.3934 66.6334 22.9196 65.9452 22.6433C65.2571 22.3669 64.503 22.3004 63.7773 22.4521C63.0517 22.6037 62.3868 22.9667 61.866 23.4957C61.3452 24.0246 60.9916 24.696 60.8497 25.4255C60.7077 26.1551 60.7836 26.9105 61.0678 27.597C61.3521 28.2835 61.832 28.8707 62.4476 29.2848C63.0631 29.6989 63.7869 29.9217 64.5281 29.9251C65.0289 29.9251 65.5247 29.8254 65.9868 29.6318C66.4489 29.4382 66.868 29.1544 67.2199 28.797C67.5717 28.4397 67.8493 28.0158 68.0365 27.55C68.2238 27.0842 68.3169 26.5857 68.3105 26.0835Z" fill="white"/>
<path d="M76.9622 30.1084C78.2902 30.1084 78.8114 29.5078 78.8114 28.9072C78.8114 26.6335 72.5305 27.9674 72.5305 23.4725C72.5305 21.302 74.0939 19.6562 76.8571 19.6562C78.7588 19.6562 80.3747 20.2041 81.48 21.1714L80.0091 23.1586C79.0874 22.509 77.9835 22.1703 76.8571 22.1913C75.6321 22.1913 75.2412 22.6612 75.2412 23.245C75.2412 25.3881 81.4422 24.3429 81.4422 28.8124C81.4422 31.0061 79.8263 32.6266 76.7794 32.6266C74.5625 32.6266 73.1315 31.8174 71.959 30.9028L73.4173 28.785C74.4075 29.6296 75.6623 30.0981 76.9622 30.1084Z" fill="white"/>
<path d="M82.2253 26.1341C82.2069 24.8298 82.576 23.5496 83.2854 22.4563C83.9949 21.363 85.0127 20.5062 86.2093 19.9948C87.4059 19.4835 88.7271 19.3408 90.0049 19.5848C91.2826 19.8289 92.459 20.4487 93.3844 21.3654C94.3098 22.282 94.9422 23.4541 95.2013 24.7324C95.4603 26.0106 95.3342 27.3373 94.8391 28.5435C94.3439 29.7497 93.5021 30.7808 92.4207 31.5057C91.3393 32.2305 90.0673 32.6163 88.7666 32.614C87.912 32.6223 87.0642 32.461 86.272 32.1393C85.4798 31.8176 84.7589 31.3418 84.1509 30.7395C83.5429 30.1372 83.0597 29.4202 82.7292 28.6298C82.3987 27.8393 82.2274 26.9912 82.2253 26.1341ZM92.5217 26.1341C92.5335 25.6341 92.4455 25.1369 92.2629 24.6716C92.0803 24.2062 91.8067 23.7822 91.4583 23.4245C91.11 23.0667 90.6937 22.7824 90.2342 22.5883C89.7746 22.3942 89.281 22.2942 88.7824 22.2942C88.2837 22.2942 87.7901 22.3942 87.3306 22.5883C86.871 22.7824 86.4548 23.0667 86.1064 23.4245C85.758 23.7822 85.4845 24.2062 85.3019 24.6716C85.1193 25.1369 85.0313 25.6341 85.0431 26.1341C85.0431 28.1971 86.6317 29.9756 88.7708 29.9756C89.2691 29.9726 89.7618 29.8706 90.2205 29.6754C90.6792 29.4803 91.0948 29.1959 91.4432 28.8386C91.7916 28.4814 92.066 28.0584 92.2503 27.5942C92.4347 27.13 92.5255 26.6337 92.5175 26.1341H92.5217Z" fill="white"/>
<path d="M110.022 26.0865C110.021 27.7897 109.35 29.4237 108.154 30.633C106.958 31.8422 105.334 32.5288 103.636 32.5432C102.173 32.5536 100.759 32.0129 99.6747 31.0281V32.3072H96.9199V12.9688H99.681V21.1492C100.774 20.1821 102.184 19.6519 103.642 19.6594C105.336 19.6694 106.957 20.3507 108.152 21.5547C109.348 22.7587 110.019 24.3877 110.022 26.0865ZM107.206 26.0865C107.193 25.3421 106.961 24.618 106.539 24.0054C106.117 23.3928 105.524 22.919 104.834 22.6435C104.144 22.3681 103.388 22.3033 102.662 22.4573C101.935 22.6114 101.271 22.9773 100.751 23.5092C100.231 24.0411 99.8802 24.7151 99.7416 25.4466C99.6029 26.1782 99.683 26.9344 99.9717 27.6204C100.26 28.3064 100.745 28.8915 101.364 29.3021C101.984 29.7127 102.71 29.9305 103.453 29.9281C104.459 29.9181 105.42 29.5079 106.125 28.7875C106.83 28.0672 107.221 27.0957 107.212 26.0865H107.206Z" fill="white"/>
<path d="M123.865 19.8902V32.3042H121.104V31.0251C120.018 32.0102 118.604 32.5509 117.141 32.5402C115.437 32.5402 113.803 31.8615 112.598 30.6534C111.394 29.4453 110.717 27.8068 110.717 26.0983C110.717 24.3898 111.394 22.7512 112.598 21.5431C113.803 20.335 115.437 19.6563 117.141 19.6563C118.599 19.6486 120.01 20.1788 121.104 21.1462V19.8818L123.865 19.8902ZM121.104 26.0835C121.091 25.3403 120.859 24.6174 120.439 24.0054C120.018 23.3934 119.426 22.9196 118.738 22.6433C118.05 22.3669 117.296 22.3004 116.57 22.4521C115.845 22.6037 115.18 22.9667 114.659 23.4957C114.138 24.0246 113.785 24.696 113.643 25.4255C113.501 26.1551 113.577 26.9105 113.861 27.597C114.145 28.2835 114.625 28.8706 115.241 29.2848C115.856 29.6989 116.58 29.9217 117.321 29.9251C117.822 29.9251 118.318 29.8254 118.78 29.6318C119.242 29.4381 119.661 29.1544 120.013 28.797C120.365 28.4397 120.642 28.0158 120.83 27.55C121.017 27.0842 121.11 26.5857 121.104 26.0835Z" fill="white"/>
<path d="M138.039 19.8902V32.3042H135.275V31.0251C134.191 32.0099 132.777 32.5506 131.314 32.5402C129.611 32.5402 127.977 31.8615 126.772 30.6534C125.567 29.4453 124.891 27.8068 124.891 26.0983C124.891 24.3898 125.567 22.7512 126.772 21.5431C127.977 20.335 129.611 19.6563 131.314 19.6563C132.772 19.6489 134.182 20.1791 135.275 21.1462V19.8818L138.039 19.8902ZM135.275 26.0835C135.262 25.3403 135.031 24.6174 134.61 24.0054C134.19 23.3934 133.598 22.9196 132.91 22.6433C132.222 22.3669 131.468 22.3004 130.742 22.4521C130.017 22.6037 129.352 22.9667 128.831 23.4957C128.31 24.0246 127.956 24.696 127.814 25.4255C127.673 26.1551 127.748 26.9105 128.033 27.597C128.317 28.2835 128.797 28.8707 129.412 29.2848C130.028 29.6989 130.752 29.9217 131.493 29.9251C131.994 29.9251 132.49 29.8254 132.952 29.6318C133.414 29.4382 133.833 29.1544 134.185 28.797C134.537 28.4397 134.814 28.0158 135.001 27.55C135.189 27.0842 135.282 26.5857 135.275 26.0835Z" fill="white"/>
<path d="M143.926 30.1084C145.254 30.1084 145.778 29.5078 145.778 28.9072C145.778 26.6335 139.495 27.9674 139.495 23.4725C139.495 21.302 141.06 19.6562 143.821 19.6562C145.725 19.6562 147.339 20.2041 148.444 21.1714L146.984 23.1586C146.062 22.5094 144.958 22.1707 143.832 22.1913C142.607 22.1913 142.216 22.6612 142.216 23.245C142.216 25.3881 148.419 24.3429 148.419 28.8124C148.419 31.0061 146.803 32.6266 143.754 32.6266C141.539 32.6266 140.106 31.8174 138.934 30.9028L140.392 28.785C141.38 29.627 142.63 30.0952 143.926 30.1084Z" fill="white"/>
<path d="M152.95 30.6485C152.949 30.9901 152.847 31.3236 152.656 31.607C152.466 31.8904 152.197 32.1109 151.882 32.2406C151.566 32.3704 151.22 32.4036 150.886 32.336C150.552 32.2685 150.246 32.1032 150.006 31.8611C149.765 31.6189 149.602 31.3108 149.536 30.9757C149.471 30.6405 149.505 30.2933 149.636 29.978C149.767 29.6626 149.988 29.3933 150.272 29.2039C150.555 29.0146 150.888 28.9138 151.229 28.9142C151.457 28.9113 151.682 28.9543 151.893 29.0406C152.104 29.1268 152.295 29.2546 152.455 29.4163C152.616 29.5781 152.742 29.7705 152.827 29.9821C152.912 30.1938 152.954 30.4204 152.95 30.6485ZM152.671 30.6485C152.67 30.3617 152.584 30.0817 152.425 29.8437C152.265 29.6058 152.039 29.4206 151.774 29.3117C151.51 29.2027 151.219 29.1748 150.939 29.2316C150.658 29.2883 150.401 29.4272 150.2 29.6305C149.998 29.8339 149.861 30.0926 149.806 30.374C149.751 30.6554 149.781 30.9468 149.891 31.2114C150.001 31.476 150.187 31.7019 150.425 31.8605C150.663 32.0191 150.943 32.1034 151.229 32.1025C151.42 32.1045 151.609 32.0684 151.785 31.9962C151.962 31.9241 152.122 31.8175 152.257 31.6825C152.392 31.5476 152.499 31.387 152.571 31.2102C152.644 31.0334 152.68 30.8439 152.679 30.6527L152.671 30.6485ZM151.572 30.7707L152.03 31.5757H151.706L151.286 30.8023H150.916V31.5757H150.609V29.6686H151.313C151.759 29.6686 151.994 29.8941 151.994 30.2334C151.999 30.3593 151.96 30.4831 151.882 30.5824C151.805 30.6816 151.695 30.7499 151.572 30.7749V30.7707ZM150.908 30.56H151.296C151.557 30.56 151.675 30.442 151.675 30.2565C151.675 30.0711 151.557 29.951 151.296 29.951H150.908V30.56Z" fill="white"/>
<path d="M19.1416 2.65383L36.2883 14.1174V30.9757L27.715 35.2745V30.1623H1.9949V14.1174L19.1416 2.65383ZM19.1416 0.0703125L-0.148438 12.9669V32.3117H25.5716V38.76L38.4317 32.3117V12.9669L19.1416 0.0703125Z" fill="white"/>
<path d="M-0.148438 12.9669L6.28158 6.51858V0.0703125H-0.148438V12.9669Z" fill="white"/>
</g>
<defs>
<clipPath id="clip0_6095_145634">
<rect width="153" height="39" fill="white"/>
</clipPath>
</defs>
</svg>
