<svg width="16" height="14" viewBox="0 0 16 14" fill="none" xmlns="http://www.w3.org/2000/svg">
<path d="M1.25 6.99878H2M14 6.99878C14.1989 6.99878 14.3897 6.91976 14.5303 6.77911C14.671 6.63846 14.75 6.44769 14.75 6.24878V3.24878C14.75 2.49878 14.3 0.998779 12.5 0.998779C10.7 0.998779 10.25 2.49878 10.25 3.24878M14 6.99878V8.49878C14 9.35228 13.5627 10.9348 11.9412 11.3795M14 6.99878H2M2 6.99878V8.49878C2 9.35228 2.43725 10.9348 4.05875 11.3795M3.5 12.9988L4.05875 11.3795M4.05875 11.3795C4.33625 11.456 4.649 11.4988 5 11.4988H11C11.3177 11.5015 11.6343 11.4614 11.9412 11.3795M12.5 12.9988L11.9412 11.3795M10.25 3.24878H8.75M10.25 3.24878H11.75" stroke="#707580" stroke-width="1.39837" stroke-linecap="round" stroke-linejoin="round"/>
</svg>
