<svg width="16" height="16" viewBox="0 0 16 16" fill="none" xmlns="http://www.w3.org/2000/svg">
<g clip-path="url(#clip0_7495_2819)">
<path d="M15.2633 0.230103C15.2953 5.20038 15.3113 10.1707 15.3433 15.1409C15.3433 15.4477 15.3273 15.8926 14.9109 15.8619C14.3343 15.8159 14.4625 15.2943 14.4625 14.9262C14.4465 11.0451 14.4625 7.17929 14.4465 3.29818C14.4465 1.0278 14.7027 1.24257 12.2523 1.24257C10.8909 1.22723 9.54555 1.28859 8.2002 1.22723C7.0951 1.16586 6.6947 1.48801 6.71071 2.60786C6.77478 6.47363 6.72673 10.3394 6.72673 14.2205C6.72673 14.5273 6.72673 14.8495 6.71071 15.1563C6.6947 15.4784 6.6947 15.8619 6.26227 15.8619C5.82983 15.8619 5.82983 15.4631 5.82983 15.1409C5.84585 10.1707 5.87788 5.20038 5.90991 0.230103C9.03304 0.230103 12.1562 0.230103 15.2633 0.230103Z" fill="#333333"/>
<path d="M0.928983 10.6769C0.928983 9.34227 0.961015 8.023 0.912967 6.68839C0.880935 5.86001 1.21727 5.36912 2.0501 5.12367C2.78684 4.89357 3.50756 4.6021 4.22828 4.34131C4.56462 4.21859 4.90096 4.20325 5.0451 4.58676C5.17323 4.90891 4.91697 5.09299 4.6447 5.21571C4.50056 5.29241 4.35641 5.38446 4.19625 5.3998C2.21027 5.69126 1.88994 6.90315 2.00206 8.59059C2.1462 10.6462 2.03409 12.7325 2.03409 14.8034C2.03409 15.2176 2.13018 15.8159 1.53759 15.8466C0.816871 15.8773 0.944999 15.2176 0.944999 14.7881C0.912967 13.4228 0.928983 12.0575 0.928983 10.6769Z" fill="#333333"/>
<ellipse rx="0.666667" ry="1" transform="matrix(1 0 0 -1 8.66667 3.66669)" fill="#333333"/>
<ellipse rx="0.666667" ry="1" transform="matrix(1 0 0 -1 8.66667 6.33331)" fill="#333333"/>
<ellipse rx="0.666667" ry="1" transform="matrix(1 0 0 -1 3.99992 8.33331)" fill="#333333"/>
<ellipse rx="0.666667" ry="1" transform="matrix(1 0 0 -1 8.66667 9)" fill="#333333"/>
<ellipse rx="0.666667" ry="1" transform="matrix(1 0 0 -1 3.99992 11)" fill="#333333"/>
<ellipse rx="0.666667" ry="1" transform="matrix(1 0 0 -1 8.66667 11.6667)" fill="#333333"/>
<ellipse rx="0.666667" ry="1" transform="matrix(1 0 0 -1 10.6667 3.66669)" fill="#333333"/>
<ellipse rx="0.666667" ry="1" transform="matrix(1 0 0 -1 10.6667 6.33331)" fill="#333333"/>
<ellipse rx="0.666667" ry="1" transform="matrix(1 0 0 -1 10.6667 9)" fill="#333333"/>
<ellipse rx="0.666667" ry="1" transform="matrix(1 0 0 -1 10.6667 11.6667)" fill="#333333"/>
<ellipse rx="0.666667" ry="1" transform="matrix(1 0 0 -1 12.6667 3.66669)" fill="#333333"/>
<ellipse rx="0.666667" ry="1" transform="matrix(1 0 0 -1 12.6667 6.33331)" fill="#333333"/>
<ellipse rx="0.666667" ry="1" transform="matrix(1 0 0 -1 12.6667 9)" fill="#333333"/>
<ellipse rx="0.666667" ry="1" transform="matrix(1 0 0 -1 12.6667 11.6667)" fill="#333333"/>
</g>
<defs>
<clipPath id="clip0_7495_2819">
<rect width="16" height="16" fill="white"/>
</clipPath>
</defs>
</svg>
